HIERARCHY
ROOT Hips
{
	OFFSET 0.000000 0.000000 0.000000 
	CHANNELS 6 Xposition Yposition Zposition Zrotation Yrotation Xrotation
	JOINT LeftUpLeg
	{
		OFFSET 1.363060 -1.794630 0.839290 
		CHANNELS 3 Zrotation Yrotation Xrotation
		JOINT LeftLeg
		{
			OFFSET 2.448110 -6.726130 0.000000 
			CHANNELS 3 Zrotation Yrotation Xrotation
			JOINT LeftFoot
			{
				OFFSET 2.562200 -7.039590 0.000000 
				CHANNELS 3 Zrotation Yrotation Xrotation
				JOINT LeftToeBase
				{
					OFFSET 0.157640 -0.433110 2.322550 
					CHANNELS 3 Zrotation Yrotation Xrotation
					End Site
					{
						OFFSET 0.000000 0.000000 0.000000 
					}
				}
			}
		}
	}
	JOINT RightUpLeg
	{
		OFFSET -1.305520 -1.794630 0.839290 
		CHANNELS 3 Zrotation Yrotation Xrotation
		JOINT RightLeg
		{
			OFFSET -2.542530 -6.985550 0.000000 
			CHANNELS 3 Zrotation Yrotation Xrotation
			JOINT RightFoot
			{
				OFFSET -2.568260 -7.056230 0.000000 
				CHANNELS 3 Zrotation Yrotation Xrotation
				JOINT RightToeBase
				{
					OFFSET -0.164730 -0.452590 2.363150 
					CHANNELS 3 Zrotation Yrotation Xrotation
					End Site
					{
						OFFSET 0.000000 0.000000 0.000000 
					}
				}
			}
		}
	}
	JOINT Spine
	{
		OFFSET 0.028270 2.035590 -0.193380 
		CHANNELS 3 Zrotation Yrotation Xrotation
		JOINT Spine1
		{
			OFFSET 0.056720 2.048850 -0.042750 
			CHANNELS 3 Zrotation Yrotation Xrotation
			JOINT Neck1
			{
				OFFSET -0.054170 1.746240 0.172020 
				CHANNELS 3 Zrotation Yrotation Xrotation
				JOINT Head
				{
					OFFSET 0.104070 1.761360 -0.123970 
					CHANNELS 3 Zrotation Yrotation Xrotation
					End Site
					{
						OFFSET 0.000000 0.000000 0.000000 
					}
				}
			}
			JOINT LeftArm
			{
				OFFSET 3.362410 1.200890 -0.311210 
				CHANNELS 3 Zrotation Yrotation Xrotation
				JOINT LeftForeArm
				{
					OFFSET 4.983000 -0.000000 -0.000000 
					CHANNELS 3 Zrotation Yrotation Xrotation
					JOINT LeftHand
					{
						OFFSET 3.483560 -0.000000 -0.000000 
						CHANNELS 3 Zrotation Yrotation Xrotation
						JOINT LeftHandIndex1
						{
							OFFSET 0.715260 -0.000000 -0.000000 
							CHANNELS 3 Zrotation Yrotation Xrotation
							End Site
							{
								OFFSET 0.000000 0.000000 0.000000 
							}
						}
					}
				}
			}
			JOINT RightArm
			{
				OFFSET -3.136600 1.374050 -0.404650 
				CHANNELS 3 Zrotation Yrotation Xrotation
				JOINT RightForeArm
				{
					OFFSET -5.241900 -0.000000 -0.000000 
					CHANNELS 3 Zrotation Yrotation Xrotation
					JOINT RightHand
					{
						OFFSET -3.444170 -0.000000 -0.000000 
						CHANNELS 3 Zrotation Yrotation Xrotation
						JOINT RightHandIndex1
						{
							OFFSET -0.622530 -0.000000 -0.000000 
							CHANNELS 3 Zrotation Yrotation Xrotation
							End Site
							{
								OFFSET 0.000000 0.000000 0.000000 
							}
						}
					}
				}
			}
		}
	}
}
MOTION
Frames: 7
Frame Time: 0.041667
24.937273 17.540564 -0.707127 -172.202786 -83.922713 165.680628 -19.257519 -14.354901 0.154575 0.302113 10.750763 30.923824 -4.259702 18.144028 -19.026207 0.001200 -0.220900 -0.606900 31.892897 15.175117 2.142042 -1.245882 -11.431243 31.038255 3.164499 -22.405637 -31.728174 -1.015700 6.412000 -17.984500 2.833205 -1.432526 2.063791 -4.053860 -1.284931 5.066489 10.698922 -8.713400 8.012441 0.270600 -4.051000 1.519500 -95.278683 -9.513710 42.695123 12.760753 -14.511642 -2.882482 -1.912216 -3.304891 -2.524556 -7.125000 0.000000 0.000000 106.170484 4.422720 24.425693 -22.861011 32.235727 -10.811741 -0.764885 3.368585 -33.159308 7.125000 0.000000 0.000000 
24.934148 17.540333 -0.704118 -171.970222 -83.817238 165.478181 -19.233371 -14.372779 0.170252 0.299080 10.749032 30.924400 -4.252863 18.156652 -19.137487 0.000400 -0.128700 -0.353700 31.964702 15.289148 2.148273 -1.244101 -11.439014 31.044474 3.176145 -22.462852 -31.760026 -1.014500 6.408200 -17.973600 2.813768 -1.364010 2.064482 -4.160612 -1.239075 5.156607 10.515296 -7.957791 8.411140 0.153400 -3.637900 1.721700 -95.147247 -9.318410 42.113150 12.792702 -14.608476 -2.906640 -1.829077 -3.318060 -2.187714 -7.125000 0.000000 0.000000 106.334425 4.366272 25.476682 -23.033995 32.271048 -10.776497 -0.600263 3.561742 -35.582193 7.125000 0.000000 0.000000 
24.934842 17.540911 -0.701572 -172.759192 -83.870118 166.287773 -19.337155 -14.360196 0.141942 0.295809 10.753437 30.914765 -4.277572 18.216817 -19.082481 0.001100 -0.216100 -0.593600 31.840169 15.301434 2.114736 -1.247917 -11.443163 31.063771 3.154158 -22.419688 -31.811935 -1.009100 6.391600 -17.925000 2.778170 -1.321786 2.050656 -4.251732 -1.214435 5.221325 10.439412 -7.124781 8.850616 0.096700 -3.179200 1.973400 -94.975694 -9.204018 41.624075 12.776052 -14.612268 -2.899557 -1.761243 -3.306863 -1.880070 -7.125000 0.000000 0.000000 106.495568 4.242872 26.502979 -23.267822 32.384076 -10.799060 -0.444444 3.739470 -38.070490 7.125000 0.000000 0.000000 
24.934842 17.541259 -0.698447 -172.531201 -83.878150 166.066549 -19.326377 -14.376203 0.147235 0.290409 10.746844 30.888794 -4.307708 18.295608 -19.064355 0.002000 -0.291800 -0.801800 31.847036 15.288093 2.092647 -1.254579 -11.457073 31.105337 3.118586 -22.331518 -31.856310 -1.002100 6.370100 -17.862200 2.741067 -1.204373 2.053073 -4.455496 -1.141111 5.323822 10.308162 -6.347365 9.220574 -0.033600 -2.752400 2.183600 -94.761675 -9.218421 41.260707 12.735365 -14.563593 -2.878074 -1.689924 -3.284495 -1.559965 -7.125000 0.000000 0.000000 106.714668 4.149640 27.324608 -23.467500 32.469312 -10.802799 -0.282945 3.881124 -40.801524 7.125000 0.000000 0.000000 
24.936694 17.540564 -0.695554 -172.339153 -84.024425 165.921606 -19.343359 -14.462628 0.109793 0.276746 10.739596 30.830994 -4.400058 18.539877 -19.006483 0.010100 -0.650100 -1.786500 31.816986 15.286383 2.020743 -1.266651 -11.481956 31.173698 3.077700 -22.214432 -31.881171 -0.877700 5.972600 -16.705000 2.705355 -1.110805 2.046216 -4.659344 -1.079961 5.374043 10.068492 -5.601641 9.458643 -0.262800 -2.354400 2.292400 -94.560815 -9.251462 40.887923 12.712325 -14.545177 -2.869073 -1.595663 -3.275140 -1.039600 -7.125000 0.000000 0.000000 106.912509 4.031410 27.997366 -23.563512 32.453228 -10.729976 -0.130140 4.008245 -42.556901 7.125000 0.000000 0.000000 
24.940398 17.538365 -0.693007 -173.390321 -84.313270 167.024044 -19.519636 -14.534955 0.048365 0.261979 10.737617 30.761391 -4.538550 18.884859 -18.807599 0.042000 -1.322800 -3.637500 31.583233 15.203670 1.892691 -1.285799 -11.505452 31.253798 3.013589 -21.968067 -31.817934 -0.654100 5.173000 -14.402800 2.677398 -1.079433 2.034992 -4.768470 -1.063554 5.353238 9.859537 -4.794946 9.485674 -0.459400 -1.950900 2.230800 -94.405350 -9.285421 40.420784 12.686380 -14.530601 -2.874229 -1.405774 -3.253760 -0.390566 -7.125000 0.000000 0.000000 107.069289 3.726394 29.333989 -23.854652 32.566593 -10.719580 0.094804 4.235806 -43.438952 7.125000 0.000000 0.000000 
24.944564 17.536977 -0.691850 -174.127809 -84.518775 167.781531 -19.624566 -14.559277 0.012342 0.251354 10.728752 30.697705 -4.586097 18.960833 -18.586782 0.062500 -1.613100 -4.437400 31.431429 15.141109 1.805780 -1.303974 -11.530475 31.333342 2.988478 -21.861584 -31.776057 -0.562100 4.801900 -13.344500 2.652551 -1.005857 2.045270 -4.878298 -1.025454 5.359492 9.703566 -3.962968 9.404721 -0.613000 -1.546400 2.118000 -94.258679 -9.387858 40.008951 12.679900 -14.513097 -2.855144 -1.419065 -3.218775 0.125257 -7.125000 0.000000 0.000000 107.221384 3.481211 30.110798 -24.200233 32.812635 -10.861164 0.206846 4.379265 -45.353195 7.125000 0.000000 0.000000 
